<svg viewBox="0 0 851.5 189.7" xmlns="http://www.w3.org/2000/svg">
  <g>
    <polygon points="190,0 102.2,0 102.2,40.9 149.1,40.9 149.1,87.8 190,87.8" fill="rgb(232, 114, 0)"></polygon>
    <polygon points="50.9,51.4 50.9,91.5 98.5,91.5 98.5,139.2 138.7,139.2 138.7,51.4" fill="rgb(132, 177, 53)"></polygon>
    <rect y="102" width="87.6" height="87.6" fill="rgb(0, 149, 169)"></rect>
    <path d="M817.1,54.7h13.3v3.1h-4.8v13h-3.7v-13h-4.8L817.1,54.7L817.1,54.7z M851.5,54.7v16.1h-3.3v-9.4l0.3-2.2l-4.8,8.9 c-0.1,0.3-0.3,0.5-0.5,0.6c-0.2,0.1-0.5,0.2-0.7,0.2h-0.5c-0.6,0-1-0.3-1.3-0.8l-4.8-8.8l0.2,2.2v9.4h-3.3V54.7h3.1 c0.3,0,0.6,0,0.7,0.1c0.2,0.1,0.3,0.2,0.5,0.5l4.3,7.9c0.2,0.5,0.4,1,0.6,1.6c0.1-0.3,0.2-0.5,0.3-0.8c0.1-0.3,0.2-0.5,0.3-0.8 l4.3-7.9c0.2-0.3,0.4-0.4,0.5-0.5c0.2-0.1,0.4-0.1,0.7-0.1C848.3,54.7,851.5,54.7,851.5,54.7z" fill="white"></path>
    <path d="M259.5,104.7c0,4.4-0.6,8.4-1.7,12.1c-1.1,3.6-2.8,6.7-5,9.3c-2.2,2.6-5,4.6-8.4,6c-3.4,1.4-7.3,2.1-11.9,2.1 c-2.1,0-4.1-0.1-6.1-0.3c-2-0.2-4.1-0.6-6.3-1.1l1-10.7c0.1-0.9,0.5-1.7,1.1-2.3c0.7-0.6,1.6-0.9,2.8-0.9c0.6,0,1.4,0.1,2.3,0.3 c0.9,0.2,2,0.3,3.3,0.3c1.8,0,3.3-0.2,4.6-0.7c1.3-0.5,2.4-1.3,3.3-2.4c0.9-1.1,1.5-2.6,2-4.5c0.4-1.8,0.7-4.1,0.7-6.9V54.1h18.4 L259.5,104.7L259.5,104.7z" fill="white"></path>
    <path d="M321.2,77v56.4h-10.4c-2.1,0-3.5-0.9-4.1-2.8l-1-3.3c-1.1,1.1-2.2,2-3.4,2.9c-1.2,0.9-2.4,1.6-3.7,2.2 c-1.3,0.6-2.8,1.1-4.3,1.4c-1.5,0.3-3.2,0.5-5,0.5c-3.1,0-5.8-0.5-8.2-1.6c-2.4-1.1-4.4-2.6-6-4.5c-1.6-1.9-2.9-4.2-3.7-6.8 c-0.8-2.6-1.3-5.5-1.3-8.6V77h16.9v35.8c0,2.8,0.6,4.9,1.9,6.5c1.3,1.5,3.1,2.3,5.6,2.3c1.8,0,3.6-0.4,5.2-1.2 c1.6-0.8,3.2-1.8,4.7-3.2V77L321.2,77L321.2,77z" fill="white"></path>
    <path d="M348.1,83.1c1.1-1,2.2-2,3.4-2.8c1.2-0.9,2.4-1.6,3.7-2.2c1.3-0.6,2.8-1.1,4.3-1.4c1.5-0.3,3.2-0.5,5-0.5 c3.1,0,5.8,0.5,8.2,1.6c2.4,1.1,4.4,2.6,6,4.5c1.6,1.9,2.9,4.2,3.7,6.8c0.8,2.6,1.3,5.5,1.3,8.6v35.8h-16.9V97.5 c0-2.8-0.6-4.9-1.9-6.4c-1.3-1.5-3.1-2.3-5.6-2.3c-1.8,0-3.6,0.4-5.2,1.2c-1.6,0.8-3.2,1.8-4.7,3.2v40.2h-16.9V77H343 c2.1,0,3.5,0.9,4.1,2.8L348.1,83.1L348.1,83.1z" fill="white"></path>
    <path d="M413.6,61.5c0,1.3-0.3,2.6-0.8,3.8c-0.5,1.2-1.3,2.2-2.2,3.1c-0.9,0.9-2,1.6-3.3,2.1c-1.2,0.5-2.6,0.8-4,0.8 c-1.4,0-2.7-0.3-3.9-0.8c-1.2-0.5-2.3-1.2-3.2-2.1c-0.9-0.9-1.6-1.9-2.2-3.1c-0.5-1.2-0.8-2.4-0.8-3.8c0-1.4,0.3-2.7,0.8-3.9 c0.5-1.2,1.3-2.2,2.2-3.2c0.9-0.9,2-1.6,3.2-2.1c1.2-0.5,2.5-0.8,3.9-0.8c1.4,0,2.7,0.3,4,0.8c1.3,0.5,2.3,1.2,3.3,2.1 c0.9,0.9,1.7,2,2.2,3.2C413.3,58.9,413.6,60.2,413.6,61.5L413.6,61.5z M411.8,77v56.4H395V77C395,77,411.8,77,411.8,77z" fill="white"></path>
    <path d="M439.4,83.9c2.2-2.4,4.7-4.3,7.5-5.8s6.2-2.3,10-2.3c2.9,0,5.7,0.7,8.2,2c2.5,1.3,4.7,3.2,6.5,5.7 c1.8,2.5,3.2,5.5,4.3,9.1c1,3.6,1.5,7.6,1.5,12.2c0,4.2-0.6,8.2-1.8,11.7c-1.2,3.6-2.8,6.7-4.9,9.4c-2.1,2.6-4.7,4.7-7.6,6.2 c-3,1.5-6.2,2.2-9.8,2.2c-2.9,0-5.4-0.4-7.4-1.3c-2-0.8-3.8-2-5.4-3.4v21.6h-16.9V77h10.4c2.1,0,3.5,0.9,4.1,2.8L439.4,83.9 L439.4,83.9z M440.5,118c1.3,1.4,2.6,2.4,4.1,2.9c1.5,0.6,3,0.9,4.7,0.9c1.6,0,3-0.3,4.3-0.9c1.3-0.6,2.4-1.6,3.4-3 c1-1.4,1.7-3.1,2.3-5.3c0.5-2.2,0.8-4.8,0.8-7.9c0-3-0.2-5.5-0.7-7.5c-0.4-2-1-3.7-1.8-4.9c-0.8-1.3-1.7-2.1-2.8-2.7 c-1.1-0.5-2.3-0.8-3.6-0.8c-2.5,0-4.5,0.5-6.1,1.4c-1.6,0.9-3.1,2.2-4.6,4L440.5,118L440.5,118z" fill="white"></path>
    <path d="M500,108.2c0.5,4.7,2,8.1,4.3,10.2c2.3,2.1,5.3,3.2,9,3.2c2,0,3.6-0.2,5.1-0.7c1.4-0.5,2.7-1,3.8-1.6 c1.1-0.6,2.1-1.1,3-1.6c0.9-0.5,1.9-0.7,2.9-0.7c1.3,0,2.4,0.5,3,1.5l4.9,6c-1.7,2-3.6,3.6-5.6,4.9c-2,1.3-4.1,2.2-6.2,2.9 c-2.1,0.7-4.2,1.2-6.4,1.5c-2.1,0.3-4.1,0.4-6.1,0.4c-4,0-7.7-0.6-11.1-1.9c-3.5-1.3-6.5-3.2-9.1-5.7c-2.6-2.5-4.6-5.7-6.1-9.5 c-1.5-3.8-2.3-8.2-2.3-13.2c0-3.8,0.6-7.3,1.9-10.7c1.3-3.4,3.1-6.3,5.5-8.9c2.4-2.5,5.3-4.5,8.8-6c3.4-1.5,7.3-2.2,11.6-2.2 c3.7,0,7.2,0.6,10.2,1.7c3.1,1.2,5.8,2.8,8,5.1c2.2,2.2,4,4.9,5.2,8.1c1.3,3.2,1.9,6.8,1.9,10.9c0,1.3-0.1,2.3-0.2,3.1 c-0.1,0.8-0.3,1.4-0.6,1.9c-0.3,0.5-0.7,0.8-1.2,1c-0.5,0.2-1.1,0.3-1.9,0.3L500,108.2L500,108.2z M521.2,98.4 c0-1.3-0.2-2.6-0.5-3.9c-0.3-1.3-0.9-2.4-1.7-3.4c-0.8-1-1.8-1.8-3.1-2.4c-1.3-0.6-2.8-0.9-4.6-0.9c-3.2,0-5.7,0.9-7.5,2.7 c-1.8,1.8-3,4.5-3.6,7.9H521.2z" fill="white"></path>
    <path d="M560.5,85.7c1.7-3,3.7-5.4,6-7.2c2.3-1.7,4.9-2.6,7.8-2.6c2.5,0,4.6,0.6,6.2,1.8l-1.1,12.4c-0.2,0.8-0.5,1.3-0.9,1.6 s-1,0.4-1.7,0.4c-0.3,0-0.7,0-1.1-0.1c-0.5,0-1-0.1-1.5-0.1s-1-0.1-1.5-0.2c-0.5-0.1-1-0.1-1.4-0.1c-2.5,0-4.4,0.7-5.9,2 c-1.5,1.3-2.7,3.1-3.7,5.4v34.3h-16.9V77h10c0.8,0,1.5,0.1,2.1,0.2c0.6,0.1,1,0.4,1.4,0.7c0.4,0.3,0.7,0.7,0.9,1.2 c0.2,0.5,0.4,1.1,0.5,1.8L560.5,85.7L560.5,85.7z" fill="white"></path>
    <path d="M696.7,55.4v77.9h-9.2V76.1c0-0.8,0-1.6,0.1-2.4c0.1-0.9,0.1-1.8,0.2-2.7L661,119.7c-0.8,1.6-2.1,2.4-3.8,2.4h-1.5 c-1.7,0-3-0.8-3.8-2.4l-27.3-48.9c0.2,1.9,0.3,3.7,0.3,5.3v57.3h-9.2V55.4h7.8c0.9,0,1.7,0.1,2.2,0.3c0.5,0.2,1,0.7,1.5,1.5 l26.9,48c0.4,0.9,0.9,1.8,1.3,2.7c0.4,0.9,0.8,1.9,1.2,2.9c0.4-1,0.7-1.9,1.1-2.9c0.4-1,0.8-1.9,1.3-2.7l26.4-47.9 c0.4-0.8,0.9-1.3,1.4-1.5c0.5-0.2,1.3-0.3,2.2-0.3L696.7,55.4L696.7,55.4z" fill="white"></path>
    <path d="M725.8,61c0,0.9-0.2,1.8-0.6,2.6c-0.4,0.8-0.9,1.5-1.5,2.2c-0.6,0.6-1.4,1.1-2.2,1.5c-0.9,0.4-1.7,0.5-2.7,0.5 s-1.8-0.2-2.6-0.5c-0.8-0.4-1.5-0.9-2.1-1.5c-0.6-0.6-1.1-1.4-1.5-2.2c-0.4-0.8-0.5-1.7-0.5-2.6s0.2-1.8,0.5-2.7 c0.4-0.9,0.9-1.6,1.5-2.2c0.6-0.6,1.3-1.1,2.1-1.5c0.8-0.4,1.7-0.5,2.6-0.5s1.8,0.2,2.7,0.5c0.9,0.4,1.6,0.9,2.2,1.5 c0.6,0.6,1.1,1.4,1.5,2.2C725.6,59.2,725.8,60,725.8,61z M723.8,78.3v55.1h-9.7V78.3C714.1,78.3,723.8,78.3,723.8,78.3z" fill="white"></path>
    <path d="M771.7,87.4c-0.4,0.8-1.1,1.2-2,1.2c-0.5,0-1.2-0.2-1.8-0.6c-0.7-0.4-1.5-0.8-2.5-1.3c-1-0.5-2.2-0.9-3.6-1.4 c-1.4-0.4-3-0.6-4.9-0.6c-1.6,0-3.1,0.2-4.4,0.6c-1.3,0.4-2.4,1-3.3,1.7s-1.6,1.6-2.1,2.5c-0.5,1-0.7,2-0.7,3.1 c0,1.4,0.4,2.6,1.2,3.5c0.8,0.9,1.9,1.8,3.2,2.4c1.3,0.7,2.9,1.3,4.6,1.8c1.7,0.5,3.5,1.1,5.2,1.7s3.5,1.3,5.2,2 c1.7,0.7,3.2,1.6,4.6,2.7s2.4,2.4,3.2,4c0.8,1.6,1.2,3.5,1.2,5.7c0,2.5-0.5,4.9-1.4,7c-0.9,2.2-2.2,4-4,5.6s-4,2.8-6.5,3.7 c-2.6,0.9-5.5,1.4-8.9,1.4c-3.8,0-7.3-0.6-10.4-1.9c-3.1-1.3-5.8-2.9-7.9-4.8l2.3-3.7c0.3-0.5,0.6-0.8,1-1.1 c0.4-0.3,0.9-0.4,1.5-0.4c0.7,0,1.3,0.3,2.1,0.8c0.7,0.5,1.6,1.1,2.6,1.7c1,0.6,2.3,1.2,3.8,1.7c1.5,0.5,3.3,0.8,5.5,0.8 c1.9,0,3.5-0.2,4.9-0.7c1.4-0.5,2.6-1.2,3.5-2c0.9-0.8,1.6-1.8,2.1-2.9c0.5-1.1,0.7-2.2,0.7-3.5c0-1.5-0.4-2.8-1.2-3.8 s-1.9-1.8-3.2-2.6c-1.3-0.7-2.9-1.3-4.6-1.8c-1.7-0.5-3.5-1.1-5.3-1.7c-1.8-0.6-3.6-1.2-5.3-2c-1.7-0.7-3.3-1.7-4.6-2.8 c-1.3-1.1-2.4-2.5-3.2-4.2c-0.8-1.6-1.2-3.7-1.2-6c0-2.1,0.4-4.1,1.3-6.1c0.9-1.9,2.1-3.6,3.8-5.1c1.7-1.5,3.7-2.6,6.1-3.5 c2.4-0.9,5.2-1.3,8.3-1.3c3.6,0,6.9,0.6,9.8,1.7c2.9,1.1,5.4,2.7,7.5,4.7L771.7,87.4L771.7,87.4z" fill="white"></path>
    <path d="M803.6,134.2c-4.3,0-7.7-1.2-10-3.6c-2.3-2.4-3.5-5.9-3.5-10.5V86.4h-6.6c-0.6,0-1.1-0.2-1.5-0.5 c-0.4-0.3-0.6-0.9-0.6-1.6v-3.9l9-1.1l2.2-17c0.1-0.5,0.4-1,0.7-1.3s0.9-0.5,1.5-0.5h4.9v19h15.9v7h-15.9v33.1 c0,2.3,0.6,4,1.7,5.2c1.1,1.1,2.6,1.7,4.4,1.7c1,0,1.9-0.1,2.6-0.4c0.7-0.3,1.4-0.6,1.9-0.9c0.5-0.3,1-0.6,1.4-0.9 c0.4-0.3,0.7-0.4,1-0.4c0.5,0,1,0.3,1.4,0.9l2.8,4.6c-1.7,1.6-3.7,2.8-6,3.7C808.6,133.8,806.1,134.2,803.6,134.2L803.6,134.2z" fill="white"></path>
  </g>
</svg>
